<svg xmlns="http://www.w3.org/2000/svg"><defs><symbol id="grid" viewBox="0 0 490.667 490.667"><path d="M480 192c5.891 0 10.667-4.776 10.667-10.667s-4.776-10.667-10.667-10.667h-32V64h32c5.891 0 10.667-4.776 10.667-10.667S485.891 42.667 480 42.667h-32v-32C448 4.776 443.224 0 437.333 0s-10.667 4.776-10.667 10.667v32H320v-32C320 4.776 315.224 0 309.333 0s-10.667 4.776-10.667 10.667v32H192v-32C192 4.776 187.224 0 181.333 0s-10.667 4.776-10.667 10.667v32H64v-32C64 4.776 59.224 0 53.333 0S42.667 4.776 42.667 10.667v32h-32C4.776 42.667 0 47.442 0 53.333S4.776 64 10.667 64h32v106.667h-32C4.776 170.667 0 175.442 0 181.333S4.776 192 10.667 192h32v106.667h-32C4.776 298.667 0 303.442 0 309.333S4.776 320 10.667 320h32v106.667h-32C4.776 426.667 0 431.442 0 437.333S4.776 448 10.667 448h32v32c0 5.891 4.776 10.667 10.667 10.667S64 485.891 64 480v-32h106.667v32c0 5.891 4.776 10.667 10.667 10.667s10.667-4.776 10.667-10.667v-32h106.667v32c0 5.891 4.776 10.667 10.667 10.667S320 485.891 320 480v-32h106.667v32c0 5.891 4.776 10.667 10.667 10.667S448 485.891 448 480v-32h32c5.891 0 10.667-4.776 10.667-10.667s-4.776-10.667-10.667-10.667h-32V320h32c5.891 0 10.667-4.776 10.667-10.667s-4.776-10.667-10.667-10.667h-32V192h32zM426.667 64v106.667H320V64h106.667zm-128 0v106.667H192V64h106.667zm0 128v106.667H192V192h106.667zM64 64h106.667v106.667H64V64zm0 128h106.667v106.667H64V192zm0 234.667V320h106.667v106.667H64zm128 0V320h106.667v106.667H192zm234.667 0H320V320h106.667v106.667zm0-128H320V192h106.667v106.667z"/></symbol><symbol id="home" viewBox="0 0 512 512"><path d="M426 495.983H86c-25.364 0-46-20.635-46-46v-242.02c0-8.836 7.163-16 16-16s16 7.164 16 16v242.02c0 7.72 6.28 14 14 14h340c7.72 0 14-6.28 14-14v-242.02c0-8.836 7.163-16 16-16s16 7.164 16 16v242.02c0 25.364-20.635 46-46 46z"/><path d="M496 263.958a15.945 15.945 0 0 1-11.313-4.687L285.698 60.284c-16.375-16.376-43.02-16.376-59.396 0L27.314 259.272c-6.248 6.249-16.379 6.249-22.627 0-6.249-6.248-6.249-16.379 0-22.627L203.675 37.656c28.852-28.852 75.799-28.852 104.65 0l198.988 198.988c6.249 6.249 6.249 16.379 0 22.627A15.943 15.943 0 0 1 496 263.958zM320 495.983H192c-8.837 0-16-7.164-16-16v-142c0-27.57 22.43-50 50-50h60c27.57 0 50 22.43 50 50v142c0 8.836-7.163 16-16 16zm-112-32h96v-126c0-9.925-8.075-18-18-18h-60c-9.925 0-18 8.075-18 18z"/></symbol><symbol id="to-top" viewBox="0 0 512 512"><path style="stroke:transparent;stroke-width:40px;stroke-linecap:round;stroke-linejoin:round;stroke-miterlimit:10;stroke-dasharray:none;stroke-opacity:1" d="M255.002 505.976h2.145c36.463 0 66.131-29.668 66.131-66.131V232.913l29.575 29.569c25.841 25.853 67.677 25.85 93.515 0l.017-.017c25.845-25.833 25.849-67.695-.012-93.532L302.702 25.341c-25.785-25.762-67.735-25.756-93.509.017L65.619 168.938c-25.853 25.841-25.85 67.677 0 93.515 25.824 25.824 67.712 25.851 93.55-.035l29.703-29.744v207.171c-.001 36.463 29.667 66.131 66.13 66.131zm-112.679-260.38c-16.516 16.54-43.32 16.574-59.871.023-16.511-16.511-16.572-43.275 0-59.848l143.574-143.58c16.496-16.496 43.345-16.491 59.842-.006l143.673 143.591c16.518 16.494 16.584 43.281.012 59.853l-.017.017c-15.985 15.997-43.863 15.997-59.848 0l-49.896-49.89c-3.418-3.412-8.521-4.441-12.974-2.581a11.907 11.907 0 0 0-7.347 10.998v235.67c0 23.338-18.984 42.322-42.322 42.322h-2.145c-23.338 0-42.322-18.984-42.322-42.322V203.901c0-4.819-2.901-9.161-7.353-10.998a11.89 11.89 0 0 0-12.974 2.586z"/></symbol><symbol id="to-bottom" viewBox="0 0 512 512"><path d="M257.001 6.022h-2.151c-36.469 0-66.137 29.668-66.137 66.131v206.926l-29.563-29.563c-25.785-25.774-67.753-25.779-93.538.017-25.84 25.828-25.856 67.689.012 93.532L209.302 486.65c25.781 25.769 67.717 25.774 93.503-.012l143.574-143.58c25.857-25.833 25.861-67.677 0-93.515-25.812-25.824-67.724-25.851-93.561.035l-29.691 29.744V72.153c-.001-36.463-29.669-66.131-66.126-66.131zm112.673 260.38c16.514-16.55 43.32-16.562 59.871-.023s16.551 43.308 0 59.848l-143.574 143.58c-16.508 16.496-43.351 16.502-59.836.006L82.457 326.22c-16.534-16.51-16.563-43.314-.012-59.853l.012-.017c16.501-16.489 43.351-16.497 59.859 0l49.885 49.89c3.418 3.412 8.533 4.435 12.974 2.581a11.916 11.916 0 0 0 7.347-10.998V72.153c0-23.338 18.984-42.322 42.328-42.322h2.151c23.332 0 42.316 18.984 42.316 42.322v235.943c0 4.819 2.906 9.161 7.359 10.998a11.917 11.917 0 0 0 12.974-2.587z"/></symbol><symbol id="flexbox" viewBox="0 0 48 48"><path style="-inkscape-stroke:none" d="M1176.3 562.25a1 1 0 0 0-1 1v20a1 1 0 0 0 1 1h11a1 1 0 0 0 1-1v-20a1 1 0 0 0-1-1zm15 0a1 1 0 0 0-1 1v8a1 1 0 0 0 1 1h11a1 1 0 0 0 1-1v-8a1 1 0 0 0-1-1zm0 12a1 1 0 0 0-1 1v8a1 1 0 0 0 1 1h11a1 1 0 0 0 1-1v-8a1 1 0 0 0-1-1zm-14.7-17.9a1.25 1.25 0 1 0 0 2.5 1.25 1.25 0 0 0 0-2.5zm3.8 0a1.25 1.25 0 1 0 0 2.5 1.25 1.25 0 0 0 0-2.5zm3.8 0a1.25 1.25 0 1 0 0 2.5 1.25 1.25 0 0 0 0-2.5z" transform="translate(-1165.3 -546.16)" class="color000 svgShape"/><path style="-inkscape-stroke:none" d="M1176 552.16a4.789 4.789 0 0 0-4.777 4.777v7.766a1 1 0 0 0 1 1 1 1 0 0 0 1-1v-7.766a2.75 2.75 0 0 1 2.777-2.777h26.446a2.75 2.75 0 0 1 2.777 2.777v12.338a1 1 0 0 0 1 1 1 1 0 0 0 1-1v-12.338a4.789 4.789 0 0 0-4.777-4.777zm-3.7 15.54a1 1 0 0 0-1 1 1 1 0 0 0 1 1 1 1 0 0 0 1-1 1 1 0 0 0-1-1zm0 4a1 1 0 0 0-1 1v10.68a4.789 4.789 0 0 0 4.777 4.777h26.446a4.789 4.789 0 0 0 4.777-4.777v-10.108a1 1 0 0 0-1-1 1 1 0 0 0-1 1v10.108a2.75 2.75 0 0 1-2.777 2.777h-26.446a2.75 2.75 0 0 1-2.777-2.777V572.7a1 1 0 0 0-1-1z" transform="translate(-1165.3 -546.16)" class="color000 svgShape"/><path style="-inkscape-stroke:none" d="M1188.6 556.6a1 1 0 0 0-1 1 1 1 0 0 0 1 1h13.416a1 1 0 0 0 1-1 1 1 0 0 0-1-1z" transform="translate(-1165.3 -546.16)" class="color000 svgShape"/></symbol><symbol id="git" viewBox="0 0 24 24"><path d="M7.105 15.21A3 3 0 1 1 5 15.17V8.83a3.001 3.001 0 1 1 2 0V12c.836-.628 1.874-1 3-1h4a3.001 3.001 0 0 0 2.895-2.21 3 3 0 1 1 2.032.064A5 5 0 0 1 14 13h-4a3.001 3.001 0 0 0-2.895 2.21zM6 17a1 1 0 1 0 0 2 1 1 0 0 0 0-2zM6 5a1 1 0 1 0 0 2 1 1 0 0 0 0-2zm12 0a1 1 0 1 0 0 2 1 1 0 0 0 0-2z"/></symbol><symbol id="dayMode" viewBox="0 0 16 16"><path d="M12 8a4 4 0 1 0-4 4 4 4 0 0 0 4-4zm-4 3a3 3 0 1 1 3-3 3 3 0 0 1-3 3zM9 3.11h.14a.49.49 0 0 0 .48-.36L10 1.64a.5.5 0 0 0-1-.28l-.3 1.13a.5.5 0 0 0 .3.62zM7 12.89a.5.5 0 0 0-.62.34L6 14.36a.5.5 0 0 0 .34.62h.14a.49.49 0 0 0 .52-.34l.32-1.13a.5.5 0 0 0-.32-.62zM14.64 9l-1.13-.3a.5.5 0 0 0-.28 1l1.13.32h.14a.5.5 0 0 0 .14-1zM2.63 7.32a.5.5 0 0 0 .14-1L1.64 6a.5.5 0 0 0-.28 1l1.13.32zM14.1 4.22a.51.51 0 0 0-.68-.2l-1 .57a.51.51 0 0 0-.2.68.49.49 0 0 0 .44.26.53.53 0 0 0 .24-.06l1-.57a.51.51 0 0 0 .2-.68zM3.13 10.53l-1 .57a.51.51 0 0 0-.2.68.49.49 0 0 0 .44.26.53.53 0 0 0 .21-.04l1-.57a.5.5 0 1 0-.48-.88zM4.59 3.61a.49.49 0 0 0 .41.26.5.5 0 0 0 .24-.06.51.51 0 0 0 .2-.68l-.57-1a.5.5 0 0 0-.87.45zM11.41 12.39a.5.5 0 0 0-.88.48l.57 1a.49.49 0 0 0 .44.26.5.5 0 0 0 .24-.06.51.51 0 0 0 .2-.68z"/></symbol><symbol id="nightMode" viewBox="0 0 24 24"><path d="M12 22.75A10.75 10.75 0 0 1 10.915 1.3a.754.754 0 0 1 .7.332.746.746 0 0 1 .033.774A7.387 7.387 0 0 0 10.75 6a7.021 7.021 0 0 0 6.75 7.25 6.385 6.385 0 0 0 4.021-1.436.75.75 0 0 1 1.218.615A10.713 10.713 0 0 1 12 22.75zM9.739 3.026a9.252 9.252 0 1 0 11.317 10.868 7.771 7.771 0 0 1-3.556.856A8.521 8.521 0 0 1 9.25 6a9.045 9.045 0 0 1 .489-2.974z"/></symbol><symbol id="navOpen" viewBox="0 0 32 32"><path d="M29 8H3a1 1 0 0 1 0-2h26a1 1 0 0 1 0 2zm1 8a1 1 0 0 0-1-1H3a1 1 0 0 0 0 2h26a1 1 0 0 0 1-1zm0 9a1 1 0 0 0-1-1H3a1 1 0 0 0 0 2h26a1 1 0 0 0 1-1z"/></symbol><symbol id="navClose" viewBox="0 0 311 311.077"><path d="M16.035 311.078c-4.097 0-8.195-1.558-11.308-4.695-6.25-6.25-6.25-16.383 0-22.633L283.789 4.687c6.25-6.25 16.383-6.25 22.633 0s6.25 16.383 0 22.637L27.363 306.383a16.045 16.045 0 0 1-11.328 4.695zm0 0"/><path d="M295.117 311.078a15.879 15.879 0 0 1-11.308-4.695L4.727 27.324c-6.25-6.254-6.25-16.386 0-22.636s16.382-6.25 22.636 0L306.422 283.75c6.25 6.25 6.25 16.383 0 22.633-3.137 3.117-7.23 4.695-11.305 4.695zm0 0"/></symbol><symbol id="arrowDown" viewBox="0 0 490.4 490.4"><path d="M490.4 245.2C490.4 110 380.4 0 245.2 0S0 110 0 245.2s110 245.2 245.2 245.2 245.2-110 245.2-245.2zm-465.9 0c0-121.7 99-220.7 220.7-220.7s220.7 99 220.7 220.7-99 220.7-220.7 220.7-220.7-99-220.7-220.7z"/><path d="m253.9 360.4 68.9-68.9c4.8-4.8 4.8-12.5 0-17.3s-12.5-4.8-17.3 0l-48 48V138.7c0-6.8-5.5-12.3-12.3-12.3s-12.3 5.5-12.3 12.3v183.4l-48-48c-4.8-4.8-12.5-4.8-17.3 0s-4.8 12.5 0 17.3l68.9 68.9c2.4 2.4 5.5 3.6 8.7 3.6s6.3-1.1 8.7-3.5z"/></symbol><symbol id="arrowUp" viewBox="0 0 128 128"><path id="Up" d="M64 0C28.711 0 0 28.711 0 64s28.711 64 64 64 64-28.711 64-64S99.289 0 64 0zm0 120C33.121 120 8 94.879 8 64S33.121 8 64 8s56 25.121 56 56-25.121 56-56 56zm22.828-62.828a3.997 3.997 0 0 1 0 5.656C86.047 63.609 85.023 64 84 64s-2.047-.391-2.828-1.172L68 49.656V88c0 2.211-1.791 4-4 4s-4-1.789-4-4V49.656L46.828 62.828c-1.563 1.563-4.094 1.563-5.656 0s-1.563-4.094 0-5.656l20-20a3.997 3.997 0 0 1 5.656 0z"/></symbol><symbol id="main__home" viewBox="0 0 512 512"><path d="M426 495.983H86c-25.364 0-46-20.635-46-46v-242.02c0-8.836 7.163-16 16-16s16 7.164 16 16v242.02c0 7.72 6.28 14 14 14h340c7.72 0 14-6.28 14-14v-242.02c0-8.836 7.163-16 16-16s16 7.164 16 16v242.02c0 25.364-20.635 46-46 46z"/><path d="M496 263.958a15.945 15.945 0 0 1-11.313-4.687L285.698 60.284c-16.375-16.376-43.02-16.376-59.396 0L27.314 259.272c-6.248 6.249-16.379 6.249-22.627 0-6.249-6.248-6.249-16.379 0-22.627L203.675 37.656c28.852-28.852 75.799-28.852 104.65 0l198.988 198.988c6.249 6.249 6.249 16.379 0 22.627A15.943 15.943 0 0 1 496 263.958zM320 495.983H192c-8.837 0-16-7.164-16-16v-142c0-27.57 22.43-50 50-50h60c27.57 0 50 22.43 50 50v142c0 8.836-7.163 16-16 16zm-112-32h96v-126c0-9.925-8.075-18-18-18h-60c-9.925 0-18 8.075-18 18z"/></symbol><symbol viewBox="0 0 128 128"><path d="M35.4 72 64 43.4 92.6 72l-7.1 7.1L64 57.5 42.5 79.1zM64 14c27.6 0 50 22.4 50 50s-22.4 50-50 50-50-22.4-50-50 22.4-50 50-50zm0 10c-22.1 0-40 17.9-40 40s17.9 40 40 40 40-17.9 40-40-17.9-40-40-40z"/></symbol><symbol viewBox="0 0 128 128"><path d="M35.4 72 64 43.4 92.6 72l-7.1 7.1L64 57.5 42.5 79.1zM64 14c27.6 0 50 22.4 50 50s-22.4 50-50 50-50-22.4-50-50 22.4-50 50-50zm0 10c-22.1 0-40 17.9-40 40s17.9 40 40 40 40-17.9 40-40-17.9-40-40-40z"/></symbol><symbol viewBox="0 0 128 128"><path d="M35.4 72 64 43.4 92.6 72l-7.1 7.1L64 57.5 42.5 79.1zM64 14c27.6 0 50 22.4 50 50s-22.4 50-50 50-50-22.4-50-50 22.4-50 50-50zm0 10c-22.1 0-40 17.9-40 40s17.9 40 40 40 40-17.9 40-40-17.9-40-40-40z"/></symbol><symbol viewBox="0 0 128 128"><path d="M35.4 72 64 43.4 92.6 72l-7.1 7.1L64 57.5 42.5 79.1zM64 14c27.6 0 50 22.4 50 50s-22.4 50-50 50-50-22.4-50-50 22.4-50 50-50zm0 10c-22.1 0-40 17.9-40 40s17.9 40 40 40 40-17.9 40-40-17.9-40-40-40z"/></symbol></defs></svg>