<svg xmlns="http://www.w3.org/2000/svg"><defs><symbol id="arrow-down" viewBox="0 0 490.4 490.4"><path d="M490.4 245.2C490.4 110 380.4 0 245.2 0S0 110 0 245.2s110 245.2 245.2 245.2 245.2-110 245.2-245.2zm-465.9 0c0-121.7 99-220.7 220.7-220.7s220.7 99 220.7 220.7-99 220.7-220.7 220.7-220.7-99-220.7-220.7z"/><path d="m253.9 360.4 68.9-68.9c4.8-4.8 4.8-12.5 0-17.3s-12.5-4.8-17.3 0l-48 48V138.7c0-6.8-5.5-12.3-12.3-12.3s-12.3 5.5-12.3 12.3v183.4l-48-48c-4.8-4.8-12.5-4.8-17.3 0s-4.8 12.5 0 17.3l68.9 68.9c2.4 2.4 5.5 3.6 8.7 3.6s6.3-1.1 8.7-3.5z"/></symbol><symbol id="arrow-up" viewBox="0 0 128 128"><path id="Up" d="M64 0C28.711 0 0 28.711 0 64s28.711 64 64 64 64-28.711 64-64S99.289 0 64 0zm0 120C33.121 120 8 94.879 8 64S33.121 8 64 8s56 25.121 56 56-25.121 56-56 56zm22.828-62.828a3.997 3.997 0 0 1 0 5.656C86.047 63.609 85.023 64 84 64s-2.047-.391-2.828-1.172L68 49.656V88c0 2.211-1.791 4-4 4s-4-1.789-4-4V49.656L46.828 62.828c-1.563 1.563-4.094 1.563-5.656 0s-1.563-4.094 0-5.656l20-20a3.997 3.997 0 0 1 5.656 0z"/></symbol><symbol id="content-magic" viewBox="0 0 512.002 512.002"><path d="m288.265 380.223-6.303-1.278a32.654 32.654 0 0 1-25.562-25.562l-1.278-6.304c-1.474-7.264-7.678-12.338-15.091-12.338s-13.617 5.073-15.091 12.339l-1.278 6.303a32.652 32.652 0 0 1-25.562 25.562l-6.303 1.279c-7.264 1.473-12.339 7.678-12.339 15.091 0 7.412 5.074 13.617 12.339 15.091l6.303 1.278a32.652 32.652 0 0 1 25.562 25.562l1.278 6.304c1.474 7.264 7.678 12.338 15.091 12.338s13.617-5.073 15.091-12.338l1.278-6.304a32.652 32.652 0 0 1 25.562-25.562l6.303-1.278c7.264-1.473 12.339-7.678 12.339-15.091 0-7.412-5.074-13.619-12.339-15.092zm-2.897 15.229a1.138 1.138 0 0 1-.127.034l-6.303 1.278a47.85 47.85 0 0 0-37.456 37.456l-1.278 6.303a1.322 1.322 0 0 1-.031.127.727.727 0 0 1-.279 0 1.127 1.127 0 0 1-.031-.127l-1.278-6.304a47.849 47.849 0 0 0-37.457-37.456l-6.303-1.278a1.713 1.713 0 0 1-.127-.031.727.727 0 0 1 0-.279.943.943 0 0 1 .127-.031l6.303-1.279a47.849 47.849 0 0 0 37.457-37.456l1.278-6.303c.011-.054.022-.096.031-.127a.727.727 0 0 1 .279 0c.009.03.021.072.031.127l1.278 6.303a47.849 47.849 0 0 0 37.456 37.456l6.303 1.278c.054.011.095.022.127.031a.722.722 0 0 1 0 .278zM391.298 407.923a7.612 7.612 0 0 0-7.611 7.611v20.609a7.612 7.612 0 0 0 15.222 0v-20.609a7.612 7.612 0 0 0-7.611-7.611zM391.298 463.406a7.612 7.612 0 0 0-7.611 7.611v20.609a7.612 7.612 0 0 0 15.222 0v-20.609a7.612 7.612 0 0 0-7.611-7.611zM429.345 445.968h-20.609a7.612 7.612 0 0 0 0 15.222h20.609a7.612 7.612 0 0 0 0-15.222zM373.861 445.968h-20.609a7.612 7.612 0 0 0 0 15.222h20.609a7.612 7.612 0 0 0 0-15.222zM45.657 312.019a7.612 7.612 0 0 0-7.611 7.611v20.609a7.61 7.61 0 1 0 15.222 0V319.63a7.61 7.61 0 0 0-7.611-7.611zM45.657 367.503a7.612 7.612 0 0 0-7.611 7.611v20.609a7.61 7.61 0 1 0 15.222 0v-20.609a7.61 7.61 0 0 0-7.611-7.611zM83.704 350.066H63.095a7.61 7.61 0 1 0 0 15.222h20.609a7.612 7.612 0 0 0 0-15.222zM28.22 350.066H7.611a7.61 7.61 0 1 0 0 15.222H28.22a7.61 7.61 0 1 0 0-15.222zM392.284 14.471a7.612 7.612 0 0 0-7.611 7.611v20.609a7.612 7.612 0 0 0 15.222 0V22.083a7.61 7.61 0 0 0-7.611-7.612zM392.284 69.955a7.612 7.612 0 0 0-7.611 7.611v20.609a7.61 7.61 0 0 0 15.222-.001V77.567a7.61 7.61 0 0 0-7.611-7.612zM430.331 52.517h-20.609a7.61 7.61 0 1 0 0 15.222h20.609a7.61 7.61 0 1 0 0-15.222zM374.847 52.517h-20.609a7.61 7.61 0 1 0 0 15.222h20.609a7.612 7.612 0 0 0 0-15.222zM290.164 118.881l-30.171-6.117a67.767 67.767 0 0 1-53.048-53.048l-6.117-30.17c-2.035-10.038-10.283-16.782-20.525-16.782-10.241 0-18.491 6.745-20.526 16.782l-6.117 30.17a67.767 67.767 0 0 1-53.048 53.048l-30.17 6.117c-10.038 2.035-16.782 10.284-16.782 20.525 0 10.242 6.745 18.491 16.782 20.525l30.17 6.116a67.767 67.767 0 0 1 53.048 53.048l6.117 30.17c2.035 10.038 10.284 16.782 20.526 16.782s18.49-6.745 20.525-16.782l6.117-30.17a67.766 67.766 0 0 1 53.048-53.048l30.171-6.116c10.038-2.035 16.782-10.284 16.782-20.525 0-10.24-6.744-18.489-16.782-20.525zm-3.024 26.132-30.17 6.117a82.96 82.96 0 0 0-64.943 64.943l-6.117 30.17c-.863 4.253-4.509 4.584-5.606 4.584s-4.744-.331-5.606-4.584l-6.117-30.17a82.96 82.96 0 0 0-64.943-64.943l-30.17-6.117c-4.253-.863-4.584-4.509-4.584-5.606s.331-4.744 4.584-5.607l30.17-6.116a82.962 82.962 0 0 0 64.943-64.942l6.117-30.17c.863-4.253 4.509-4.584 5.606-4.584s4.743.331 5.606 4.584l6.117 30.17a82.96 82.96 0 0 0 64.943 64.942l30.17 6.116c4.253.863 4.584 4.509 4.584 5.607 0 1.098-.331 4.744-4.584 5.606zM497.698 231.343l-23.17-4.698a50.28 50.28 0 0 1-39.36-39.36l-4.698-23.17c-1.707-8.421-8.901-14.303-17.493-14.303-8.593 0-15.787 5.882-17.494 14.303l-4.698 23.17a50.279 50.279 0 0 1-39.36 39.36l-23.17 4.698c-8.421 1.707-14.303 8.901-14.303 17.494s5.881 15.786 14.303 17.494l23.17 4.698a50.279 50.279 0 0 1 39.36 39.359l4.698 23.17c1.708 8.421 8.901 14.303 17.495 14.303 8.593 0 15.786-5.882 17.493-14.303l4.698-23.17a50.278 50.278 0 0 1 39.36-39.359l23.17-4.698c8.421-1.708 14.303-8.901 14.303-17.494s-5.883-15.786-14.304-17.494zm-3.026 20.068-23.17 4.698a65.475 65.475 0 0 0-51.254 51.254l-4.698 23.17c-.283 1.396-1.149 2.105-2.575 2.105-1.426 0-2.292-.708-2.575-2.105l-4.698-23.17a65.473 65.473 0 0 0-51.254-51.254l-23.17-4.698c-1.396-.283-2.105-1.15-2.105-2.575s.708-2.292 2.105-2.575l23.17-4.698a65.474 65.474 0 0 0 51.254-51.254l4.698-23.17c.283-1.396 1.15-2.105 2.575-2.105 1.425 0 2.292.708 2.575 2.105l4.698 23.17a65.475 65.475 0 0 0 51.254 51.254l23.17 4.698c1.396.283 2.105 1.15 2.105 2.575s-.707 2.292-2.105 2.575z"/></symbol><symbol id="day-mode" viewBox="0 0 16 16"><g id="_34" data-name="34"><path d="M12 8a4 4 0 1 0-4 4 4 4 0 0 0 4-4zm-4 3a3 3 0 1 1 3-3 3 3 0 0 1-3 3zM9 3.11h.14a.49.49 0 0 0 .48-.36L10 1.64a.5.5 0 0 0-1-.28l-.3 1.13a.5.5 0 0 0 .3.62zM7 12.89a.5.5 0 0 0-.62.34L6 14.36a.5.5 0 0 0 .34.62h.14a.49.49 0 0 0 .52-.34l.32-1.13a.5.5 0 0 0-.32-.62zM14.64 9l-1.13-.3a.5.5 0 0 0-.28 1l1.13.32h.14a.5.5 0 0 0 .14-1zM2.63 7.32a.5.5 0 0 0 .14-1L1.64 6a.5.5 0 0 0-.28 1l1.13.32zM14.1 4.22a.51.51 0 0 0-.68-.2l-1 .57a.51.51 0 0 0-.2.68.49.49 0 0 0 .44.26.53.53 0 0 0 .24-.06l1-.57a.51.51 0 0 0 .2-.68zM3.13 10.53l-1 .57a.51.51 0 0 0-.2.68.49.49 0 0 0 .44.26.53.53 0 0 0 .21-.04l1-.57a.5.5 0 1 0-.48-.88zM4.59 3.61a.49.49 0 0 0 .41.26.5.5 0 0 0 .24-.06.51.51 0 0 0 .2-.68l-.57-1a.5.5 0 0 0-.87.45zM11.41 12.39a.5.5 0 0 0-.88.48l.57 1a.49.49 0 0 0 .44.26.5.5 0 0 0 .24-.06.51.51 0 0 0 .2-.68z"/></g></symbol><symbol id="flexbox" viewBox="0 0 48 48"><g color="#000" class="color000 svgShape"><path style="-inkscape-stroke:none" d="M1176.3 562.25a1 1 0 0 0-1 1v20a1 1 0 0 0 1 1h11a1 1 0 0 0 1-1v-20a1 1 0 0 0-1-1zm15 0a1 1 0 0 0-1 1v8a1 1 0 0 0 1 1h11a1 1 0 0 0 1-1v-8a1 1 0 0 0-1-1zm0 12a1 1 0 0 0-1 1v8a1 1 0 0 0 1 1h11a1 1 0 0 0 1-1v-8a1 1 0 0 0-1-1zm-14.7-17.9a1.25 1.25 0 1 0 0 2.5 1.25 1.25 0 0 0 0-2.5zm3.8 0a1.25 1.25 0 1 0 0 2.5 1.25 1.25 0 0 0 0-2.5zm3.8 0a1.25 1.25 0 1 0 0 2.5 1.25 1.25 0 0 0 0-2.5z" transform="translate(-1165.3 -546.16)" class="color000 svgShape"/><path style="-inkscape-stroke:none" d="M1176 552.16a4.789 4.789 0 0 0-4.777 4.777v7.766a1 1 0 0 0 1 1 1 1 0 0 0 1-1v-7.766a2.75 2.75 0 0 1 2.777-2.777h26.446a2.75 2.75 0 0 1 2.777 2.777v12.338a1 1 0 0 0 1 1 1 1 0 0 0 1-1v-12.338a4.789 4.789 0 0 0-4.777-4.777zm-3.7 15.54a1 1 0 0 0-1 1 1 1 0 0 0 1 1 1 1 0 0 0 1-1 1 1 0 0 0-1-1zm0 4a1 1 0 0 0-1 1v10.68a4.789 4.789 0 0 0 4.777 4.777h26.446a4.789 4.789 0 0 0 4.777-4.777v-10.108a1 1 0 0 0-1-1 1 1 0 0 0-1 1v10.108a2.75 2.75 0 0 1-2.777 2.777h-26.446a2.75 2.75 0 0 1-2.777-2.777V572.7a1 1 0 0 0-1-1z" transform="translate(-1165.3 -546.16)" class="color000 svgShape"/><path style="-inkscape-stroke:none" d="M1188.6 556.6a1 1 0 0 0-1 1 1 1 0 0 0 1 1h13.416a1 1 0 0 0 1-1 1 1 0 0 0-1-1z" transform="translate(-1165.3 -546.16)" class="color000 svgShape"/></g></symbol><symbol id="git" viewBox="0 0 24 24"><clipPath id="clip0_1_1298"><path d="M0 0h24v24H0z"/></clipPath><g clip-path="url('#clip0_1_1298')"><path d="M7.105 15.21A3 3 0 1 1 5 15.17V8.83a3.001 3.001 0 1 1 2 0V12c.836-.628 1.874-1 3-1h4a3.001 3.001 0 0 0 2.895-2.21 3 3 0 1 1 2.032.064A5 5 0 0 1 14 13h-4a3.001 3.001 0 0 0-2.895 2.21zM6 17a1 1 0 1 0 0 2 1 1 0 0 0 0-2zM6 5a1 1 0 1 0 0 2 1 1 0 0 0 0-2zm12 0a1 1 0 1 0 0 2 1 1 0 0 0 0-2z"/></g></symbol><symbol id="go-down" viewBox="0 0 512 512"><path d="M257.001 6.022h-2.151c-36.469 0-66.137 29.668-66.137 66.131v206.926l-29.563-29.563c-25.785-25.774-67.753-25.779-93.538.017-25.84 25.828-25.856 67.689.012 93.532L209.302 486.65c25.781 25.769 67.717 25.774 93.503-.012l143.574-143.58c25.857-25.833 25.861-67.677 0-93.515-25.812-25.824-67.724-25.851-93.561.035l-29.691 29.744V72.153c-.001-36.463-29.669-66.131-66.126-66.131zm112.673 260.38c16.514-16.55 43.32-16.562 59.871-.023s16.551 43.308 0 59.848l-143.574 143.58c-16.508 16.496-43.351 16.502-59.836.006L82.457 326.22c-16.534-16.51-16.563-43.314-.012-59.853l.012-.017c16.501-16.489 43.351-16.497 59.859 0l49.885 49.89c3.418 3.412 8.533 4.435 12.974 2.581a11.916 11.916 0 0 0 7.347-10.998V72.153c0-23.338 18.984-42.322 42.328-42.322h2.151c23.332 0 42.316 18.984 42.316 42.322v235.943c0 4.819 2.906 9.161 7.359 10.998a11.917 11.917 0 0 0 12.974-2.587z" id="_x30_9_Arrow_Down"/></symbol><symbol id="go-top" viewBox="0 0 512 512" xmlns="http://www.w3.org/2000/svg"><path d="M255.002 505.976h2.145c36.463 0 66.131-29.668 66.131-66.131V232.913l29.575 29.569c25.841 25.853 67.677 25.85 93.515 0l.017-.017c25.845-25.833 25.849-67.695-.012-93.532L302.702 25.341c-25.785-25.762-67.735-25.756-93.509.017L65.619 168.938c-25.853 25.841-25.85 67.677 0 93.515 25.824 25.824 67.712 25.851 93.55-.035l29.703-29.744v207.171c-.001 36.463 29.667 66.131 66.13 66.131zm-112.679-260.38c-16.516 16.54-43.32 16.574-59.871.023-16.511-16.511-16.572-43.275 0-59.848l143.574-143.58c16.496-16.496 43.345-16.491 59.842-.006l143.673 143.591c16.518 16.494 16.584 43.281.012 59.853l-.017.017c-15.985 15.997-43.863 15.997-59.848 0l-49.896-49.89c-3.418-3.412-8.521-4.441-12.974-2.581a11.907 11.907 0 0 0-7.347 10.998v235.67c0 23.338-18.984 42.322-42.322 42.322h-2.145c-23.338 0-42.322-18.984-42.322-42.322V203.901c0-4.819-2.901-9.161-7.353-10.998a11.89 11.89 0 0 0-12.974 2.586z" id="_x30_7_Arrow_Up"/></symbol><symbol id="grid" viewBox="0 0 490.667 490.667"><path d="M480 192c5.891 0 10.667-4.776 10.667-10.667s-4.776-10.667-10.667-10.667h-32V64h32c5.891 0 10.667-4.776 10.667-10.667S485.891 42.667 480 42.667h-32v-32C448 4.776 443.224 0 437.333 0s-10.667 4.776-10.667 10.667v32H320v-32C320 4.776 315.224 0 309.333 0s-10.667 4.776-10.667 10.667v32H192v-32C192 4.776 187.224 0 181.333 0s-10.667 4.776-10.667 10.667v32H64v-32C64 4.776 59.224 0 53.333 0S42.667 4.776 42.667 10.667v32h-32C4.776 42.667 0 47.442 0 53.333S4.776 64 10.667 64h32v106.667h-32C4.776 170.667 0 175.442 0 181.333S4.776 192 10.667 192h32v106.667h-32C4.776 298.667 0 303.442 0 309.333S4.776 320 10.667 320h32v106.667h-32C4.776 426.667 0 431.442 0 437.333S4.776 448 10.667 448h32v32c0 5.891 4.776 10.667 10.667 10.667S64 485.891 64 480v-32h106.667v32c0 5.891 4.776 10.667 10.667 10.667s10.667-4.776 10.667-10.667v-32h106.667v32c0 5.891 4.776 10.667 10.667 10.667S320 485.891 320 480v-32h106.667v32c0 5.891 4.776 10.667 10.667 10.667S448 485.891 448 480v-32h32c5.891 0 10.667-4.776 10.667-10.667s-4.776-10.667-10.667-10.667h-32V320h32c5.891 0 10.667-4.776 10.667-10.667s-4.776-10.667-10.667-10.667h-32V192h32zM426.667 64v106.667H320V64h106.667zm-128 0v106.667H192V64h106.667zm0 128v106.667H192V192h106.667zM64 64h106.667v106.667H64V64zm0 128h106.667v106.667H64V192zm0 234.667V320h106.667v106.667H64zm128 0V320h106.667v106.667H192zm234.667 0H320V320h106.667v106.667zm0-128H320V192h106.667v106.667z"/></symbol><symbol id="home" viewBox="0 0 512 512"><path d="M426 495.983H86c-25.364 0-46-20.635-46-46v-242.02c0-8.836 7.163-16 16-16s16 7.164 16 16v242.02c0 7.72 6.28 14 14 14h340c7.72 0 14-6.28 14-14v-242.02c0-8.836 7.163-16 16-16s16 7.164 16 16v242.02c0 25.364-20.635 46-46 46z"/><path d="M496 263.958a15.945 15.945 0 0 1-11.313-4.687L285.698 60.284c-16.375-16.376-43.02-16.376-59.396 0L27.314 259.272c-6.248 6.249-16.379 6.249-22.627 0-6.249-6.248-6.249-16.379 0-22.627L203.675 37.656c28.852-28.852 75.799-28.852 104.65 0l198.988 198.988c6.249 6.249 6.249 16.379 0 22.627A15.943 15.943 0 0 1 496 263.958zM320 495.983H192c-8.837 0-16-7.164-16-16v-142c0-27.57 22.43-50 50-50h60c27.57 0 50 22.43 50 50v142c0 8.836-7.163 16-16 16zm-112-32h96v-126c0-9.925-8.075-18-18-18h-60c-9.925 0-18 8.075-18 18z"/></symbol><symbol id="nav-close" viewBox="0 0 294.843 294.843"><path d="M147.421 0C66.133 0 0 66.133 0 147.421s66.133 147.421 147.421 147.421c38.287 0 74.567-14.609 102.159-41.136a6 6 0 1 0-8.316-8.65c-25.345 24.367-58.672 37.786-93.842 37.786C72.75 282.843 12 222.093 12 147.421S72.75 12 147.421 12s135.421 60.75 135.421 135.421c0 16.842-3.052 33.273-9.071 48.835a6 6 0 0 0 11.193 4.329c6.555-16.949 9.879-34.836 9.879-53.165C294.843 66.133 228.71 0 147.421 0z"/><path d="M167.619 160.134a6 6 0 0 0-8.395 8.575l47.236 46.236a5.981 5.981 0 0 0 4.197 1.712 6.001 6.001 0 0 0 4.198-10.288l-47.236-46.235zM125.178 133.663c1.171 1.171 2.707 1.757 4.243 1.757s3.071-.586 4.243-1.757a6 6 0 0 0 0-8.485L88.428 79.942a6 6 0 0 0-8.485 8.485l45.235 45.236zM214.9 79.942a6 6 0 0 0-8.485 0L79.942 206.415a6 6 0 1 0 8.486 8.485L214.9 88.428a6.001 6.001 0 0 0 0-8.486z"/></symbol><symbol id="nav-open" viewBox="0 0 294.843 294.843"><path d="M147.421 0C66.133 0 0 66.133 0 147.421c0 40.968 17.259 80.425 47.351 108.255a6 6 0 0 0 8.147-8.81C27.854 221.3 12 185.054 12 147.421 12 72.75 72.75 12 147.421 12s135.421 60.75 135.421 135.421-60.75 135.421-135.421 135.421a6 6 0 0 0 0 12c81.289 0 147.421-66.133 147.421-147.421S228.71 0 147.421 0z"/><path d="M84.185 90.185h126.473a6 6 0 0 0 0-12H84.185a6 6 0 0 0 0 12zM84.185 153.421h126.473a6 6 0 0 0 0-12H84.185a6 6 0 0 0 0 12zM216.658 210.658a6 6 0 0 0-6-6H84.185a6 6 0 0 0 0 12h126.473a6 6 0 0 0 6-6z"/></symbol><symbol id="night-mode" viewBox="0 0 24 24"><path d="M12 22.75A10.75 10.75 0 0 1 10.915 1.3a.754.754 0 0 1 .7.332.746.746 0 0 1 .033.774A7.387 7.387 0 0 0 10.75 6a7.021 7.021 0 0 0 6.75 7.25 6.385 6.385 0 0 0 4.021-1.436.75.75 0 0 1 1.218.615A10.713 10.713 0 0 1 12 22.75zM9.739 3.026a9.252 9.252 0 1 0 11.317 10.868 7.771 7.771 0 0 1-3.556.856A8.521 8.521 0 0 1 9.25 6a9.045 9.045 0 0 1 .489-2.974z" id="Layer_2" data-name="Layer 2"/></symbol><symbol id="day-mode" viewBox="0 0 512 512"><path d="M256 96.745c-87.813 0-159.255 71.442-159.255 159.255S168.187 415.255 256 415.255 415.255 343.813 415.255 256 343.813 96.745 256 96.745Zm0 298.51c-76.786 0-139.255-62.469-139.255-139.255S179.214 116.745 256 116.745 395.255 179.214 395.255 256 332.786 395.255 256 395.255ZM256 67.293a10 10 0 0 0 10-10V10a10 10 0 0 0-20 0v47.293a10 10 0 0 0 10 10ZM256 444.707a10 10 0 0 0-10 10V502a10 10 0 0 0 20 0v-47.293a10 10 0 0 0-10-10ZM147.986 88.915a10 10 0 0 0 17.321-10L141.66 37.958a10 10 0 1 0-17.32 10ZM364.014 423.085a10 10 0 0 0-17.321 10l23.647 40.957a10 10 0 1 0 17.32-10ZM88.915 147.986 47.958 124.34a10 10 0 1 0-10 17.32l40.957 23.647a10 10 0 0 0 10-17.321ZM474.042 370.34l-40.957-23.647a10 10 0 0 0-10 17.321l40.957 23.646a10 10 0 1 0 10-17.32ZM67.293 256a10 10 0 0 0-10-10H10a10 10 0 0 0 0 20h47.293a10 10 0 0 0 10-10ZM502 246h-47.293a10 10 0 0 0 0 20H502a10 10 0 0 0 0-20ZM78.915 346.693 37.958 370.34a10 10 0 1 0 10 17.32l40.957-23.646a10 10 0 0 0-10-17.321ZM428.1 166.648a9.953 9.953 0 0 0 4.99-1.341l40.957-23.647a10 10 0 1 0-10-17.32l-40.957 23.646a10 10 0 0 0 5.01 18.662ZM161.646 419.425a10 10 0 0 0-13.66 3.66l-23.646 40.957a10 10 0 1 0 17.32 10l23.647-40.957a10 10 0 0 0-3.661-13.66ZM350.354 92.575a10 10 0 0 0 13.66-3.66l23.646-40.957a10 10 0 1 0-17.32-10l-23.647 40.957a10 10 0 0 0 3.661 13.66Z"/></symbol><symbol id="html" viewBox="0 0 512 512"><path d="M315.36 4.64A16.001 16.001 0 0 0 304 0H48C21.49 0 0 21.491 0 48v416c0 26.51 21.49 48 48 48h112v-32H48c-8.837 0-16-7.163-16-16V48c0-8.837 7.163-16 16-16h240v64c0 17.673 14.327 32 32 32h64v48h32v-64a15.997 15.997 0 0 0-4.64-11.36l-96-96z"/><path d="M176 288h32v128h32V288h32v-32h-96zM128 320H96v-64H64v160h32v-64h32v64h32V256h-32zM406.08 257.28a16 16 0 0 0-17.44 3.52L352 297.44l-36.64-36.64c-6.223-6.274-16.353-6.316-22.627-.093A16 16 0 0 0 288 272v144h32V310.56l20.64 20.64c6.241 6.204 16.319 6.204 22.56 0l20.8-20.64V416h32V272a16 16 0 0 0-9.92-14.72zM464 384V256h-32v144c0 8.837 7.163 16 16 16h64v-32h-48z"/></symbol><symbol id="markdown" fill="none" viewBox="0 0 24 24"><path clip-rule="evenodd" d="M8.175 2.01A1.5 1.5 0 0 1 9.49 3.675L9.334 5h6.98l.196-1.675a1.5 1.5 0 1 1 2.98.35L19.334 5H20.5a1.5 1.5 0 0 1 0 3h-1.52l-1 8.5h1.52a1.5 1.5 0 0 1 0 3h-1.872l-.138 1.175a1.5 1.5 0 1 1-2.98-.35l.097-.825H7.628l-.138 1.175a1.5 1.5 0 1 1-2.98-.35l.097-.825H3.5a1.5 1.5 0 1 1 0-3h1.46l1-8.5H4.5a1.5 1.5 0 1 1 0-3h1.813l.197-1.675A1.5 1.5 0 0 1 8.175 2.01zM14.96 16.5l1-8.5H8.98l-1 8.5z" fill="#160b34" fill-rule="evenodd"/></symbol><symbol id="dom" viewBox="0 0 512 512"><path style="fill:none;stroke:#000;stroke-width:20px;stroke-linecap:round;stroke-linejoin:round;stroke-miterlimit:10" d="M427.344 146.044V293.44M427.344 443.72V482c0 11.05-8.95 20-20 20h-329.8c-11.05 0-20-8.95-20-20V100.57L148.124 10h259.22c11.05 0 20 8.95 20 20v24.924"/><path style="fill:none;stroke:#000;stroke-width:20px;stroke-linecap:round;stroke-linejoin:round;stroke-miterlimit:10" d="M148.122 10v70.566c0 11.046-8.954 20-20 20H57.544L148.122 10zM444.456 442.72H158.122c-5.523 0-10-4.477-10-10V304.441c0-5.523 4.477-10 10-10h286.335c5.523 0 10 4.477 10 10V432.72c-.001 5.523-4.478 10-10.001 10zM264.688 152.376l-47.31 74.793M175.395 227.169l-36.047-37.396 36.047-37.397M309.492 152.376l36.048 37.397-36.048 37.396"/><path style="fill:none;stroke:#000;stroke-width:20px;stroke-linecap:round;stroke-linejoin:round;stroke-miterlimit:10" d="M238.069 401.109s9.053 9.11 18.913 3.637c4.865-2.701 7.801-7.91 7.801-13.474v-60.609M352.016 338.459s-13.608-11.438-29.654-6.604c-14.734 4.438-16.795 21.428-6.135 28.377 0 0 10.46 4.666 22.061 8.946 27.927 10.301 15.897 37.319-6.585 37.319-11.258 0-20.707-4.93-26.426-11.241M427.344 100.566h0"/></symbol><symbol id="accountInfo" viewBox="0 0 64 64"><path d="M54 4H10a6.007 6.007 0 0 0-6 6v44a6.007 6.007 0 0 0 6 6h44a6.007 6.007 0 0 0 6-6V10a6.007 6.007 0 0 0-6-6zM10 6h44a4.004 4.004 0 0 1 4 4v9H6v-9a4.004 4.004 0 0 1 4-4zm44 52H10a4.004 4.004 0 0 1-4-4V21h52v33a4.004 4.004 0 0 1-4 4z"/><path d="M33.702 16.568a3.383 3.383 0 0 0 0-6.765 3.383 3.383 0 0 0 0 6.765zm0-4.765a1.383 1.383 0 0 1 0 2.765 1.383 1.383 0 0 1 0-2.765zM42.468 16.568a3.383 3.383 0 0 0 0-6.765 3.383 3.383 0 0 0 0 6.765zm0-4.765a1.383 1.383 0 0 1 0 2.765 1.383 1.383 0 0 1 0-2.765zM51.234 16.568a3.383 3.383 0 0 0 0-6.765 3.383 3.383 0 0 0 0 6.765zm0-4.765a1.383 1.383 0 0 1 0 2.765 1.383 1.383 0 0 1 0-2.765zM23.028 37.078a3.712 3.712 0 1 0-6.624-2.295 3.684 3.684 0 0 0 .897 2.394 6.082 6.082 0 0 0-3.491 6.01 2 2 0 0 0 1.999 1.999h8.945a2 2 0 0 0 1.999-2 6.083 6.083 0 0 0-3.725-6.108zm-2.904-4.015a1.72 1.72 0 0 1 0 3.439 1.72 1.72 0 0 1 0-3.439zM15.81 43.186c-.442-6.273 9.448-6.13 8.945 0z"/><path d="M20.281 25.71A12.429 12.429 0 0 0 7.867 38.124c.683 16.469 24.148 16.464 24.828 0A12.429 12.429 0 0 0 20.281 25.71zm0 22.828A10.426 10.426 0 0 1 9.867 38.124c.572-13.816 20.258-13.812 20.828 0a10.426 10.426 0 0 1-10.414 10.414zM38.74 29h12a1 1 0 0 0 0-2h-12a1 1 0 0 0 0 2zM38.843 33.354a1 1 0 0 0 0 2h7.793a1 1 0 0 0 0-2zM54.74 39h-16a1 1 0 0 0 0 2h16a1 1 0 0 0 0-2zM49.824 48a1 1 0 0 0-1-1h-12a1 1 0 0 0 0 2h12a1 1 0 0 0 1-1zM52.636 51.507h-12a1 1 0 0 0 0 2h12a1 1 0 0 0 0-2z"/></symbol><symbol id="js" viewBox="0 0 64 64"><path d="M57 8H7c-1.654 0-3 1.346-3 3v34c0 1.654 1.346 3 3 3h18.719l-1.5 6H20c-1.322 0-1.324 2 0 2h24c1.322 0 1.324-2 0-2h-4.219l-1.5-6H57c1.654 0 3-1.346 3-3V11c0-1.654-1.346-3-3-3zM7 10h50c.551 0 1 .449 1 1v30H6V11c0-.551.449-1 1-1zm30.719 44H26.281l1.5-6h8.438zM57 46H7c-.551 0-1-.449-1-1v-2h52v2c0 .551-.449 1-1 1z"/><path d="M12 27c1.103 0 2 .897 2 2v3c0 2.206 1.794 4 4 4 1.322 0 1.324-2 0-2-1.103 0-2-.897-2-2v-3a3.99 3.99 0 0 0-1.357-3A3.99 3.99 0 0 0 16 23v-3c0-1.103.897-2 2-2a1 1 0 0 0 0-2c-2.206 0-4 1.794-4 4v3c0 1.103-.897 2-2 2-1.322 0-1.324 2 0 2zM48 32c0 1.103-.897 2-2 2-1.322 0-1.324 2 0 2 2.206 0 4-1.794 4-4v-3c0-1.103.897-2 2-2 1.322 0 1.324-2 0-2-1.103 0-2-.897-2-2v-3c0-2.206-1.794-4-4-4-1.322 0-1.324 2 0 2 1.103 0 2 .897 2 2v3a3.99 3.99 0 0 0 1.357 3A3.99 3.99 0 0 0 48 29zM27 33c-1.103 0-2-.897-2-2 0-1.322-2-1.324-2 0 0 2.206 1.794 4 4 4s4-1.794 4-4V18a1 1 0 0 0-1-1h-6c-1.322 0-1.324 2 0 2h5v12c0 1.103-.897 2-2 2zM38 33c-1.103 0-2-.897-2-2 0-1.322-2-1.324-2 0 0 2.206 1.794 4 4 4s4-1.794 4-4c0-.868-.285-1.721-.799-2.399l-4.805-6.406A2.002 2.002 0 0 1 38 19c1.103 0 2 .897 2 2 0 1.322 2 1.324 2 0 0-2.206-1.794-4-4-4s-4 1.794-4 4c0 .868.285 1.721.799 2.399l4.805 6.406A2.002 2.002 0 0 1 38 33z"/></symbol><symbol id="link" viewBox="0 0 128 128"><path id="External_Link" d="M124 8v36c0 2.211-1.789 4-4 4s-4-1.789-4-4V17.656L58.828 74.828C58.047 75.609 57.023 76 56 76s-2.047-.391-2.828-1.172a3.997 3.997 0 0 1 0-5.656L110.344 12H84c-2.211 0-4-1.789-4-4s1.789-4 4-4h36c2.211 0 4 1.789 4 4zm-16 104V64c0-2.211-1.789-4-4-4s-4 1.789-4 4v48c0 2.207-1.793 4-4 4H16c-2.207 0-4-1.793-4-4V32c0-2.207 1.793-4 4-4h48c2.211 0 4-1.789 4-4s-1.789-4-4-4H16C9.383 20 4 25.383 4 32v80c0 6.617 5.383 12 12 12h80c6.617 0 12-5.383 12-12z"/></symbol></defs></svg>